PathFileType	4	(X/Y/Z)	./resultDataOpenSim/trcMotMarkerGrf/sub10/qtm-14-06.trc
DataRate	CameraRate	NumFrames	NumMarkers	Units	OrigDataRate	OrigDataStartFrame	OrigNumFrames
250.000000	250.000000	9	24	m	250.000000	245	488
Frame#	Time	L.Toe.Tip			R.Toe.Tip			L.Ankle.Lat			R.Ankle.Lat			L.Ankle.Med			R.Ankle.Med			L.Heel			R.Heel			L.Knee.Lat			R.Knee.Lat			L.Knee.Med			R.Knee.Med			L.Thigh.Upper			R.Thigh.Upper			L.ASIS			R.ASIS			V.Sacral			L.Acromium			R.Acromium			C7			L.Elbow			R.Elbow			L.Wrist.Lat			R.Wrist.Lat
		X1	Y1	Z1	X2	Y2	Z2	X3	Y3	Z3	X4	Y4	Z4	X5	Y5	Z5	X6	Y6	Z6	X7	Y7	Z7	X8	Y8	Z8	X9	Y9	Z9	X10	Y10	Z10	X11	Y11	Z11	X12	Y12	Z12	X13	Y13	Z13	X14	Y14	Z14	X15	Y15	Z15	X16	Y16	Z16	X17	Y17	Z17	X18	Y18	Z18	X19	Y19	Z19	X20	Y20	Z20	X21	Y21	Z21	X22	Y22	Z22	X23	Y23	Z23	X24	Y24	Z24

245	0.976	0.07774955	-0.032813661	-0.095782092	0.77122498	0.12393369	-0.013701552	-0.041348228	0.016007242	-0.13730377	0.62749154	0.097901852	0.012042478	-0.024735648	0.044991352	-0.058728684	0.64969215	0.13889053	-0.065742486	-0.115046	0.012957589	-0.096321465	0.5952944	0.064065945	-0.04371807	0.16572394	0.33472201	-0.20005823	0.51935186	0.4800641	0.054607469	0.18326905	0.31811344	-0.079092662	0.54527297	0.50209216	-0.067710921	0.16226558	0.73072341	-0.26722503	0.24189407	0.75301794	0.11190948	0.23279403	0.84102704	-0.22109092	0.29358117	0.84576752	0.021707936	0.072240885	0.85833762	-0.046866233	0.27920955	1.329869	-0.21711105	0.243949	1.3315259	0.067399967	0.19065249	1.348526	-0.08587965	0.21703864	1.1209954	-0.48333655	0.0637705	1.1332857	0.27811256	0.42011014	1.1288604	-0.63493784	0.07388046	1.1507463	0.52745079
246	0.98	0.077729308	-0.032857761	-0.095553992	0.78333316	0.12496673	-0.015809837	-0.041166025	0.01659766	-0.13670446	0.63993095	0.096999555	0.010893669	-0.024337793	0.045366206	-0.057979787	0.66119956	0.13841786	-0.066873387	-0.11477872	0.013888603	-0.095528852	0.60804068	0.062729224	-0.044707226	0.16725606	0.33460009	-0.19896427	0.52518077	0.47735897	0.053701884	0.18410718	0.31817989	-0.07808335	0.55134391	0.49947144	-0.068906796	0.16645006	0.73026986	-0.26628099	0.24972444	0.753953	0.11196756	0.23842866	0.84108883	-0.22113257	0.30113188	0.84688481	0.021066385	0.079657483	0.85846849	-0.046017941	0.28497779	1.3307819	-0.21687815	0.24967387	1.3323207	0.06705661	0.19656935	1.3491221	-0.085522124	0.22465553	1.1240539	-0.48482805	0.067294149	1.1363977	0.27777437	0.42863286	1.1340606	-0.63515459	0.076015287	1.1565764	0.52717881
247	0.984	0.077726871	-0.032938463	-0.095370242	0.79482415	0.12592477	-0.01777531	-0.040978885	0.017223731	-0.1362188	0.65232756	0.095739216	0.0095058024	-0.023929018	0.04578519	-0.057300297	0.6721289	0.13791272	-0.067998376	-0.11449135	0.014873453	-0.094819787	0.62017404	0.061429676	-0.045704757	0.16888539	0.33443793	-0.19783558	0.53098121	0.47474241	0.052772071	0.18501743	0.31831109	-0.077114838	0.55738262	0.49705617	-0.07012088	0.17076724	0.72998687	-0.26532694	0.25756792	0.75495661	0.11196763	0.24421954	0.84109123	-0.22111515	0.30876995	0.84795735	0.020402311	0.087151177	0.85861911	-0.045167862	0.29076112	1.3317199	-0.21662502	0.25541876	1.3331194	0.06676569	0.20255777	1.349799	-0.085262015	0.23224671	1.1270661	-0.48620407	0.070810664	1.1394615	0.27734413	0.43706752	1.1391339	-0.6352776	0.078325531	1.1622187	0.52680591
248	0.988	0.077726882	-0.033024535	-0.095218768	0.80569398	0.12680722	-0.019566904	-0.040799682	0.017929232	-0.13590875	0.66435892	0.09431514	0.0080262646	-0.023505963	0.046262814	-0.056703794	0.68247148	0.13735003	-0.069123191	-0.11416594	0.015938947	-0.094212226	0.63167796	0.060135171	-0.046695223	0.17065993	0.33427692	-0.19659389	0.53677877	0.47222933	0.051820569	0.18602208	0.31850769	-0.076195318	0.56339366	0.49485683	-0.071324408	0.17527352	0.72993368	-0.2643963	0.26544262	0.75599305	0.11191375	0.25015802	0.84104829	-0.2210495	0.31653404	0.84894263	0.019726692	0.094620313	0.85882372	-0.044365614	0.29656615	1.3326824	-0.2163517	0.26117243	1.3339156	0.066526726	0.20867182	1.3504847	-0.08524308	0.23980837	1.1300215	-0.48745978	0.074350755	1.142451	0.27682994	0.44541381	1.1440791	-0.63530439	0.080794659	1.1676595	0.52633923
249	0.992	0.07772106	-0.033082144	-0.095082028	0.81591064	0.12762296	-0.021221755	-0.040605028	0.018728931	-0.13573591	0.67558419	0.092992082	0.0066468871	-0.023044874	0.046818758	-0.056208037	0.69223293	0.13670926	-0.070253137	-0.11377955	0.017112988	-0.093723895	0.64254747	0.058818342	-0.047660692	0.1725315	0.33423539	-0.19522502	0.54259639	0.46983575	0.050868377	0.18713265	0.31876603	-0.075340396	0.56938733	0.49287245	-0.07248066	0.17999006	0.73012828	-0.26348966	0.27336941	0.75704022	0.11182401	0.25623938	0.84097752	-0.22094152	0.3244271	0.84981476	0.019038933	0.10201962	0.85911094	-0.043635988	0.30239555	1.3336669	-0.21606339	0.26693087	1.3347063	0.066340783	0.21488073	1.3510895	-0.085397654	0.24733954	1.132911	-0.48859002	0.077945587	1.1453393	0.27625374	0.45367486	1.1488958	-0.63524178	0.083400062	1.1728988	0.52578357
250	0.996	0.077716801	-0.033102921	-0.094952852	0.82543856	0.12834851	-0.022816835	-0.040341442	0.019611884	-0.13561576	0.68585111	0.091861911	0.0054438341	-0.022519141	0.047468882	-0.055828031	0.7014221	0.13596478	-0.071386557	-0.11332004	0.018405203	-0.093374489	0.65278527	0.057464974	-0.048582493	0.17428911	0.33447449	-0.19387206	0.54843802	0.46755881	0.049934497	0.18834133	0.31907724	-0.074571156	0.57536815	0.49109572	-0.073549781	0.18489704	0.73054863	-0.26257402	0.28136184	0.75808399	0.11172223	0.26245775	0.84089551	-0.22079808	0.33237031	0.85061665	0.018330733	0.10942193	0.85946842	-0.042987019	0.30824858	1.3346717	-0.21576604	0.27270461	1.3354918	0.06621251	0.2211058	1.3516052	-0.085513594	0.25484199	1.135725	-0.48959598	0.081640518	1.1480969	0.27565093	0.46184938	1.1535874	-0.635107	0.086128677	1.1779449	0.52514169
251	1	0.077729565	-0.033100005	-0.094835384	0.83429566	0.12891534	-0.024409629	-0.039964733	0.020574854	-0.13551478	0.695306	0.090840574	0.0043777546	-0.021916309	0.048222947	-0.055564137	0.71004278	0.13508639	-0.072511522	-0.11277964	0.019816874	-0.093177532	0.66239535	0.05606799	-0.049439691	0.17574592	0.33504841	-0.19275322	0.55428026	0.46536527	0.049008835	0.18963348	0.31943462	-0.073906682	0.58133535	0.48951482	-0.074503711	0.18996832	0.73114417	-0.26161798	0.28943198	0.75911569	0.11162945	0.26880235	0.84081737	-0.22063058	0.34023929	0.8514413	0.017599247	0.11695854	0.85982096	-0.042434246	0.31412358	1.3356979	-0.21546147	0.27849756	1.336278	0.06613715	0.2272875	1.3521024	-0.085408027	0.26231831	1.1384553	-0.49048506	0.085482898	1.1506967	0.27506038	0.46992255	1.1581519	-0.63492115	0.088975748	1.1827996	0.52441666
252	1.004	0.077770422	-0.033086526	-0.094735327	0.84255412	0.12924998	-0.026024367	-0.039479384	0.021629676	-0.13547841	0.70413303	0.089827749	0.0033944347	-0.021235808	0.049087429	-0.055409757	0.718101	0.13404721	-0.07361441	-0.11214508	0.021356326	-0.093132955	0.67137937	0.054619475	-0.050213491	0.17693379	0.3358123	-0.1919941	0.56009758	0.46322686	0.04806501	0.19100617	0.3198376	-0.073355537	0.58728861	0.48810752	-0.075342127	0.1952081	0.731849	-0.26063328	0.2975988	0.76013724	0.1115576	0.27526003	0.84075869	-0.22044825	0.34798039	0.85233809	0.016857251	0.12464526	0.86009414	-0.041947801	0.32002028	1.3367488	-0.21515093	0.28430615	1.337071	0.066103029	0.23343181	1.3526472	-0.085081803	0.26977053	1.1410996	-0.49126474	0.089471657	1.1531338	0.27448773	0.47786016	1.162564	-0.63470118	0.091933393	1.1874594	0.52361672
253	1.008	0.077843027	-0.033067321	-0.094655091	0.85028923	0.12931102	-0.027674134	-0.03891362	0.022786075	-0.13556206	0.71242729	0.088776025	0.0024638645	-0.020470414	0.050063759	-0.055371992	0.72561821	0.1328428	-0.074689354	-0.11140505	0.023031314	-0.093231483	0.67974214	0.053110404	-0.050896214	0.1779998	0.33658122	-0.19160685	0.56589517	0.46117073	0.047098754	0.19247714	0.32028677	-0.072911614	0.59322183	0.48683682	-0.076095066	0.20064795	0.73259033	-0.2596641	0.30588172	0.76115934	0.1115058	0.28182334	0.84073416	-0.22025514	0.35567221	0.85326657	0.016123539	0.13237343	0.86029411	-0.041439837	0.32594384	1.337826	-0.21483665	0.2901384	1.3378699	0.066107309	0.23958292	1.3532596	-0.08467387	0.27719618	1.1436585	-0.49194209	0.093508294	1.155448	0.27386709	0.48560754	1.1667819	-0.63445906	0.094993075	1.1919232	0.52275171
